<?xml version="1.0" encoding="UTF-8"?>
<svg id="Livello_1" data-name="Livello 1" xmlns="http://www.w3.org/2000/svg" xmlns:xlink="http://www.w3.org/1999/xlink" viewBox="0 0 1350 334">
  <defs>
    <style>
      .cls-1 {
        fill: #3c3c3b;
      }

      .cls-2 {
        fill: url(#Sfumatura_senza_nome_111-2);
      }

      .cls-3 {
        fill: url(#Sfumatura_senza_nome_111);
      }
    </style>
    <linearGradient id="Sfumatura_senza_nome_111" data-name="Sfumatura senza nome 111" x1="308.91" y1="208.63" x2="25.94" y2="45.26" gradientUnits="userSpaceOnUse">
      <stop offset="0" stop-color="#794693"/>
      <stop offset=".22" stop-color="#71529c"/>
      <stop offset=".63" stop-color="#5e73b6"/>
      <stop offset="1" stop-color="#4998d3"/>
    </linearGradient>
    <linearGradient id="Sfumatura_senza_nome_111-2" data-name="Sfumatura senza nome 111" x1="1329.19" y1="244.66" x2="990.85" y2="49.32" xlink:href="#Sfumatura_senza_nome_111"/>
  </defs>
  <path class="cls-3" d="M57.65,230.52h48.92c2.83,34.77,29.92,61.05,63.88,61.05s61.05-26.28,63.88-61.05h48.92s0,0,0,0c-3.24,57.41-51.75,101.48-112.8,101.48s-109.57-44.07-112.8-101.48c0,0,0,0,0,0ZM148.76,127.07v-32.84c0-5.37-4.36-9.73-9.73-9.73h0c-5.37,0-9.73,4.36-9.73,9.73v32.84c0,5.37,4.36,9.73,9.73,9.73h0c5.37,0,9.73-4.36,9.73-9.73ZM211.59,127.07v-32.84c0-5.37-4.36-9.73-9.73-9.73h0c-5.37,0-9.73,4.36-9.73,9.73v32.84c0,5.37,4.36,9.73,9.73,9.73h0c5.37,0,9.73-4.36,9.73-9.73ZM335.49,2H113.53C53.66,2,5.13,50.53,5.13,110.4s48.53,108.4,108.4,108.4h113.56c59.87,0,108.4-48.53,108.4-108.4,0-21.92-6.53-42.31-17.71-59.36h17.71V2ZM286.45,110.4c0,32.73-26.63,59.36-59.36,59.36h-113.56c-32.73,0-59.36-26.63-59.36-59.36s26.63-59.36,59.36-59.36h113.56c32.73,0,59.36,26.63,59.36,59.36Z"/>
  <g>
    <g>
      <g>
        <path class="cls-1" d="M389.66,51.83h26.76v144.94h91.43v22.3h-118.18V51.83Z"/>
        <path class="cls-1" d="M514.76,61.64c0-8.92,7.14-16.28,16.28-16.28s16.28,7.36,16.28,16.28-7.14,16.28-16.28,16.28-16.28-7.36-16.28-16.28ZM517.66,107.58h26.76v111.5h-26.76v-111.5Z"/>
        <path class="cls-1" d="M618.01,126.53c-13.6,0-31.44,10.48-31.44,33.89v58.65h-26.76v-111.5h26.76v16.5c10.26-14.05,26.54-20.07,41.25-20.07,23.86,0,43.48,11.82,43.48,47.5v67.57h-26.76v-58.42c0-20.29-6.47-34.12-26.54-34.12Z"/>
        <path class="cls-1" d="M879.25,163.33c0-33.23,27.43-59.32,62.21-59.32s62.21,26.09,62.21,59.32-27.43,59.32-62.21,59.32-62.21-26.09-62.21-59.32ZM976.92,163.33c0-20.74-15.61-37.02-35.46-37.02s-35.46,16.28-35.46,37.02,15.61,37.02,35.46,37.02,35.46-16.28,35.46-37.02Z"/>
        <path class="cls-2" d="M1039.36,160.72l-52.18-105.03h26.76l40.81,80.72,39.47-80.72h22.3l-50.4,104.81v62.44h-26.76v-62.21ZM1100.01,163.33c0-33.23,27.43-59.32,62.21-59.32s62.21,26.09,62.21,59.32-27.43,59.32-62.21,59.32-62.21-26.09-62.21-59.32ZM1197.68,163.33c0-20.74-15.61-37.02-35.46-37.02s-35.46,16.28-35.46,37.02,15.61,37.02,35.46,37.02,35.46-16.28,35.46-37.02ZM1232.47,175.15v-67.57h26.76v58.42c0,20.29,6.47,34.12,26.54,34.12,13.6,0,31.44-10.48,31.44-33.89v-58.65h26.76v111.5h-26.76v-16.5c-10.26,14.05-26.54,20.07-41.25,20.07-23.86,0-43.48-11.82-43.48-47.5Z"/>
      </g>
      <g>
        <path class="cls-1" d="M1050.12,285.97c-3.51,0-6.74-.58-9.7-1.74-2.96-1.16-5.52-2.79-7.69-4.9-2.17-2.1-3.86-4.58-5.06-7.43-1.21-2.85-1.81-5.96-1.81-9.34s.6-6.49,1.81-9.34c1.2-2.85,2.9-5.32,5.1-7.43,2.19-2.1,4.77-3.74,7.72-4.9,2.96-1.16,6.19-1.74,9.7-1.74s6.72.55,9.63,1.64c2.91,1.1,5.4,2.76,7.46,5l-3.02,3.09c-1.93-1.93-4.06-3.31-6.38-4.14-2.32-.83-4.82-1.25-7.49-1.25-2.85,0-5.47.47-7.86,1.41-2.39.94-4.47,2.28-6.25,4.01-1.78,1.73-3.15,3.75-4.14,6.05-.99,2.3-1.48,4.83-1.48,7.59s.49,5.24,1.48,7.56c.99,2.32,2.37,4.35,4.14,6.08,1.78,1.73,3.86,3.07,6.25,4.01,2.39.94,4.99,1.41,7.79,1.41,2.63,0,5.12-.39,7.46-1.18,2.35-.79,4.5-2.13,6.48-4.01l2.76,3.68c-2.19,1.93-4.76,3.39-7.69,4.37-2.94.99-6.01,1.48-9.2,1.48ZM1067.02,280.12l-4.67-.59v-16.96h4.67v17.55Z"/>
        <path class="cls-1" d="M1077.54,285.57v-34.52h4.47v9.4l-.46-1.64c.96-2.63,2.59-4.64,4.86-6.02,2.28-1.38,5.11-2.07,8.48-2.07v4.54c-.18,0-.35,0-.53-.03-.18-.02-.35-.03-.53-.03-3.64,0-6.49,1.11-8.55,3.32-2.06,2.21-3.09,5.36-3.09,9.44v17.62h-4.67Z"/>
        <path class="cls-1" d="M1114.88,285.9c-3.38,0-6.38-.76-9.01-2.27-2.63-1.51-4.71-3.6-6.25-6.28-1.54-2.67-2.3-5.7-2.3-9.07s.77-6.51,2.3-9.14c1.53-2.63,3.62-4.69,6.25-6.18,2.63-1.49,5.63-2.23,9.01-2.23s6.45.76,9.11,2.27c2.65,1.51,4.73,3.57,6.25,6.18,1.51,2.61,2.27,5.65,2.27,9.11s-.76,6.45-2.27,9.11c-1.51,2.65-3.6,4.73-6.28,6.25-2.67,1.51-5.7,2.27-9.07,2.27ZM1114.88,281.76c2.5,0,4.71-.56,6.64-1.68,1.93-1.12,3.45-2.7,4.57-4.73,1.12-2.04,1.68-4.39,1.68-7.07s-.56-5.08-1.68-7.1c-1.12-2.02-2.64-3.58-4.57-4.7-1.93-1.12-4.12-1.68-6.58-1.68s-4.65.56-6.58,1.68c-1.93,1.12-3.46,2.69-4.6,4.7-1.14,2.02-1.71,4.38-1.71,7.1s.57,5.03,1.71,7.07c1.14,2.04,2.66,3.62,4.57,4.73,1.91,1.12,4.09,1.68,6.54,1.68Z"/>
        <path class="cls-1" d="M1154.07,285.9c-2.94,0-5.5-.55-7.69-1.64-2.19-1.09-3.89-2.74-5.09-4.93-1.21-2.19-1.81-4.93-1.81-8.22v-20.05h4.67v19.53c0,3.68.91,6.45,2.73,8.32,1.82,1.86,4.37,2.79,7.66,2.79,2.41,0,4.5-.49,6.28-1.48,1.78-.99,3.13-2.42,4.08-4.31.94-1.88,1.41-4.14,1.41-6.77v-18.08h4.67v34.52h-4.47v-9.47l.72,1.71c-1.09,2.54-2.79,4.53-5.09,5.95-2.3,1.43-4.99,2.14-8.05,2.14Z"/>
        <path class="cls-1" d="M1181.75,298.33v-47.27h4.47v10.39l-.46,6.9.66,6.97v23.01h-4.67ZM1199.57,285.9c-2.98,0-5.68-.69-8.09-2.07-2.41-1.38-4.33-3.37-5.75-5.98-1.43-2.61-2.14-5.8-2.14-9.57s.7-6.96,2.1-9.57c1.4-2.61,3.31-4.59,5.72-5.95,2.41-1.36,5.13-2.04,8.15-2.04,3.29,0,6.24.73,8.84,2.2,2.61,1.47,4.66,3.53,6.15,6.18,1.49,2.65,2.24,5.71,2.24,9.17s-.75,6.57-2.24,9.2c-1.49,2.63-3.54,4.69-6.15,6.18-2.61,1.49-5.55,2.24-8.84,2.24ZM1199.24,281.76c2.45,0,4.65-.56,6.58-1.68,1.93-1.12,3.46-2.7,4.6-4.73,1.14-2.04,1.71-4.39,1.71-7.07s-.57-5.02-1.71-7.04c-1.14-2.02-2.67-3.59-4.6-4.73-1.93-1.14-4.12-1.71-6.58-1.71s-4.66.57-6.61,1.71c-1.95,1.14-3.48,2.72-4.6,4.73-1.12,2.02-1.68,4.36-1.68,7.04s.56,5.03,1.68,7.07c1.12,2.04,2.65,3.62,4.6,4.73,1.95,1.12,4.15,1.68,6.61,1.68Z"/>
        <path class="cls-1" d="M1252.76,285.97c-3.42,0-6.7-.56-9.83-1.68-3.13-1.12-5.56-2.55-7.27-4.31l1.91-3.75c1.62,1.58,3.8,2.9,6.54,3.98,2.74,1.08,5.62,1.61,8.65,1.61s5.25-.36,7.07-1.08c1.82-.72,3.16-1.7,4.01-2.93.85-1.23,1.28-2.59,1.28-4.08,0-1.8-.52-3.24-1.55-4.34-1.03-1.09-2.38-1.96-4.04-2.6-1.67-.63-3.51-1.19-5.52-1.68-2.02-.48-4.03-1-6.05-1.55-2.02-.55-3.87-1.28-5.55-2.2-1.69-.92-3.05-2.14-4.08-3.65-1.03-1.51-1.55-3.49-1.55-5.95,0-2.28.6-4.37,1.81-6.28,1.2-1.91,3.06-3.44,5.55-4.6,2.5-1.16,5.7-1.74,9.6-1.74,2.59,0,5.15.36,7.69,1.08,2.54.72,4.73,1.72,6.57,2.99l-1.64,3.88c-1.97-1.32-4.07-2.28-6.28-2.89-2.21-.61-4.35-.92-6.41-.92-2.76,0-5.04.37-6.84,1.12-1.8.75-3.12,1.74-3.98,2.99-.85,1.25-1.28,2.66-1.28,4.24,0,1.8.51,3.24,1.55,4.34,1.03,1.1,2.39,1.95,4.08,2.56,1.69.61,3.54,1.16,5.56,1.64,2.02.48,4.02,1.01,6.02,1.58,1.99.57,3.84,1.31,5.52,2.2,1.69.9,3.05,2.09,4.08,3.58,1.03,1.49,1.55,3.44,1.55,5.85,0,2.23-.61,4.31-1.84,6.21-1.23,1.91-3.1,3.44-5.62,4.6-2.52,1.16-5.75,1.74-9.7,1.74Z"/>
        <path class="cls-1" d="M1279.06,285.9c-.96,0-1.79-.35-2.47-1.05-.68-.7-1.02-1.56-1.02-2.56s.34-1.91,1.02-2.56c.68-.66,1.5-.99,2.47-.99s1.79.33,2.47.99c.68.66,1.02,1.51,1.02,2.56s-.34,1.86-1.02,2.56c-.68.7-1.5,1.05-2.47,1.05Z"/>
        <path class="cls-1" d="M1290.3,285.57v-34.52h4.47v9.4l-.46-1.64c.96-2.63,2.59-4.64,4.86-6.02,2.28-1.38,5.11-2.07,8.48-2.07v4.54c-.18,0-.35,0-.53-.03-.18-.02-.35-.03-.53-.03-3.64,0-6.49,1.11-8.55,3.32-2.06,2.21-3.09,5.36-3.09,9.44v17.62h-4.67Z"/>
        <path class="cls-1" d="M1314.23,285.9c-.96,0-1.79-.35-2.47-1.05-.68-.7-1.02-1.56-1.02-2.56s.34-1.91,1.02-2.56c.68-.66,1.5-.99,2.47-.99s1.79.33,2.47.99c.68.66,1.02,1.51,1.02,2.56s-.34,1.86-1.02,2.56c-.68.7-1.5,1.05-2.47,1.05Z"/>
        <path class="cls-1" d="M1325.48,285.57v-48.79h4.67v48.79h-4.67Z"/>
        <path class="cls-1" d="M1341.39,285.9c-.96,0-1.79-.35-2.47-1.05-.68-.7-1.02-1.56-1.02-2.56s.34-1.91,1.02-2.56c.68-.66,1.5-.99,2.47-.99s1.79.33,2.47.99c.68.66,1.02,1.51,1.02,2.56s-.34,1.86-1.02,2.56c-.68.7-1.5,1.05-2.47,1.05Z"/>
      </g>
    </g>
    <path class="cls-1" d="M715.16,229.88h26.78c1.55,19.04,16.38,33.42,34.97,33.42s33.42-14.39,34.97-33.42h26.78s0,0,0,0c-1.77,31.43-28.33,55.56-61.76,55.56s-59.98-24.13-61.76-55.56c0,0,0,0,0,0Z"/>
    <path class="cls-1" d="M867.26,104.78h-121.51c-32.78,0-59.34,26.56-59.34,59.34s26.56,59.36,59.34,59.36h62.18c32.78,0,59.34-26.58,59.34-59.36,0-12-3.56-23.15-9.7-32.49h9.7v-26.84ZM807.93,196.63h-62.18c-17.91,0-32.49-14.58-32.49-32.52s14.58-32.49,32.49-32.49h62.18c17.91,0,32.49,14.58,32.49,32.49s-14.58,32.52-32.49,32.52Z"/>
  </g>
</svg>