<?xml version="1.0" encoding="UTF-8"?>
<svg id="Livello_1" data-name="Livello 1" xmlns="http://www.w3.org/2000/svg" xmlns:xlink="http://www.w3.org/1999/xlink" viewBox="0 0 684 639">
  <defs>
    <style>
      .cls-1 {
        fill: url(#Sfumatura_senza_nome_111);
      }
    </style>
    <linearGradient id="Sfumatura_senza_nome_111" data-name="Sfumatura senza nome 111" x1="592.54" y1="398.71" x2="64.34" y2="93.76" gradientUnits="userSpaceOnUse">
      <stop offset="0" stop-color="#794693"/>
      <stop offset=".22" stop-color="#71529c"/>
      <stop offset=".63" stop-color="#5e73b6"/>
      <stop offset="1" stop-color="#4998d3"/>
    </linearGradient>
  </defs>
  <path class="cls-1" d="M123.53,439.57h91.31c5.28,64.9,55.85,113.96,119.24,113.96s113.96-49.06,119.24-113.96h91.31s0,0,0,0c-6.04,107.16-96.6,189.42-210.56,189.42s-204.52-82.26-210.56-189.42c0,0,0,0,0,0ZM293.6,246.46v-61.29c0-10.03-8.13-18.16-18.16-18.16h0c-10.03,0-18.16,8.13-18.16,18.16v61.29c0,10.03,8.13,18.16,18.16,18.16h0c10.03,0,18.16-8.13,18.16-18.16ZM410.88,246.46v-61.29c0-10.03-8.13-18.16-18.16-18.16h0c-10.03,0-18.16,8.13-18.16,18.16v61.29c0,10.03,8.13,18.16,18.16,18.16h0c10.03,0,18.16-8.13,18.16-18.16ZM642.16,13H227.83C116.08,13,25.49,103.59,25.49,215.34s90.59,202.34,202.34,202.34h211.98c111.75,0,202.34-90.59,202.34-202.34,0-40.92-12.18-78.97-33.07-110.81h33.07V13ZM550.62,215.34c0,61.1-49.71,110.81-110.81,110.81h-211.98c-61.1,0-110.81-49.71-110.81-110.81s49.71-110.81,110.81-110.81h211.98c61.1,0,110.81,49.71,110.81,110.81Z"/>
</svg>